<svg id="Layer_3" enable-background="new 0 0 64 64" height="512" viewBox="0 0 64 64" width="512" xmlns="http://www.w3.org/2000/svg" fill="white"><path d="m35 2c-13.255 0-24 10.745-24 24v20h-6l9 15 9-15h-6v-20c0-9.941 8.059-18 18-18s18 8.059 18 18v17c0 1.657 1.343 3 3 3s3-1.343 3-3v-17c0-13.255-10.745-24-24-24z"/><circle cx="56" cy="60" r="3"/><circle cx="56" cy="52" r="3"/><path d="m35 19c-7.168 0-13 5.832-13 13s5.832 13 13 13 13-5.832 13-13-5.832-13-13-13zm-7 14h-2v-2h2zm7-2c2.206 0 4 1.794 4 4 0 1.859-1.28 3.411-3 3.858v2.142h-2v-2.142c-1.72-.447-3-1.999-3-3.858h2c0 1.103.897 2 2 2s2-.897 2-2-.897-2-2-2c-2.206 0-4-1.794-4-4 0-1.859 1.28-3.411 3-3.858v-2.142h2v2.142c1.72.447 3 1.999 3 3.858h-2c0-1.103-.897-2-2-2s-2 .897-2 2 .897 2 2 2zm9 2h-2v-2h2z"/></svg>