<svg xmlns="http://www.w3.org/2000/svg" fill="white" viewBox="0 0 192 192"><defs></defs><g id="Artwork_Layer" data-name="Artwork Layer"><path class="cls-1" d="M56.79,31.12h78.42a5.22,5.22,0,0,0,5.23-5.21v-.65a5.22,5.22,0,0,0-5.23-5.21H56.79a5.22,5.22,0,0,0-5.23,5.21v.65A5.22,5.22,0,0,0,56.79,31.12Z"></path><path class="cls-1" d="M140.44,159.1V41.86a5.22,5.22,0,0,0-5.23-5.21H56.79a5.22,5.22,0,0,0-5.23,5.21V159.1a2.09,2.09,0,0,1-1.55,2,5.54,5.54,0,0,0-4,5.49A5.81,5.81,0,0,0,51.79,172H78.91a5.93,5.93,0,0,0,6-5.92v-23a1.3,1.3,0,0,1,1.3-1.29h19.68a1.3,1.3,0,0,1,1.3,1.29v23a5.93,5.93,0,0,0,6,5.92h27.12a5.81,5.81,0,0,0,5.79-5.36,5.54,5.54,0,0,0-4-5.49A2.09,2.09,0,0,1,140.44,159.1Zm-61-2a1.3,1.3,0,0,1-1.3,1.29H58.41a1.3,1.3,0,0,1-1.3-1.29v-14a1.3,1.3,0,0,1,1.3-1.29H78.1a1.3,1.3,0,0,1,1.3,1.29Zm0-34.26a2.47,2.47,0,0,1-2.47,2.46h-6.3a2.46,2.46,0,0,1-2.47-2.46v-6.28a2.46,2.46,0,0,1,2.47-2.46h6.3a2.47,2.47,0,0,1,2.47,2.46Zm0-22.2a2.47,2.47,0,0,1-2.47,2.46h-6.3a2.46,2.46,0,0,1-2.47-2.46V94.34a2.47,2.47,0,0,1,2.47-2.47h6.3a2.48,2.48,0,0,1,2.47,2.47Zm0-22.1A2.48,2.48,0,0,1,76.93,81h-6.3a2.47,2.47,0,0,1-2.47-2.47V72.24a2.46,2.46,0,0,1,2.47-2.46h6.3a2.47,2.47,0,0,1,2.47,2.46Zm0-22.19a2.47,2.47,0,0,1-2.47,2.46h-6.3a2.46,2.46,0,0,1-2.47-2.46V50a2.46,2.46,0,0,1,2.47-2.46h6.3A2.47,2.47,0,0,1,79.4,50Zm22.22,66.49a2.46,2.46,0,0,1-2.47,2.46h-6.3a2.46,2.46,0,0,1-2.47-2.46v-6.28a2.46,2.46,0,0,1,2.47-2.46h6.3a2.46,2.46,0,0,1,2.47,2.46Zm0-22.2a2.46,2.46,0,0,1-2.47,2.46h-6.3a2.46,2.46,0,0,1-2.47-2.46V94.34a2.47,2.47,0,0,1,2.47-2.47h6.3a2.47,2.47,0,0,1,2.47,2.47Zm0-22.1A2.47,2.47,0,0,1,99.15,81h-6.3a2.47,2.47,0,0,1-2.47-2.47V72.24a2.46,2.46,0,0,1,2.47-2.46h6.3a2.46,2.46,0,0,1,2.47,2.46Zm0-22.19a2.46,2.46,0,0,1-2.47,2.46h-6.3a2.46,2.46,0,0,1-2.47-2.46V50a2.46,2.46,0,0,1,2.47-2.46h6.3A2.46,2.46,0,0,1,101.62,50Zm11-6.28a2.47,2.47,0,0,1,2.47-2.46h6.3A2.46,2.46,0,0,1,123.84,50v6.28a2.46,2.46,0,0,1-2.47,2.46h-6.3a2.47,2.47,0,0,1-2.47-2.46Zm0,22.2a2.47,2.47,0,0,1,2.47-2.46h6.3a2.46,2.46,0,0,1,2.47,2.46v6.27A2.47,2.47,0,0,1,121.37,81h-6.3a2.48,2.48,0,0,1-2.47-2.47Zm0,22.1a2.48,2.48,0,0,1,2.47-2.47h6.3a2.47,2.47,0,0,1,2.47,2.47v6.27a2.46,2.46,0,0,1-2.47,2.46h-6.3a2.47,2.47,0,0,1-2.47-2.46Zm0,22.19a2.47,2.47,0,0,1,2.47-2.46h6.3a2.46,2.46,0,0,1,2.47,2.46v6.28a2.46,2.46,0,0,1-2.47,2.46h-6.3a2.47,2.47,0,0,1-2.47-2.46ZM135,157.07a1.3,1.3,0,0,1-1.3,1.29H114a1.3,1.3,0,0,1-1.3-1.29v-14a1.3,1.3,0,0,1,1.3-1.29h19.69a1.3,1.3,0,0,1,1.3,1.29Z"></path></g></svg>