<svg xmlns="http://www.w3.org/2000/svg"  fill="white" viewBox="0 0 192 192"><defs><style></style></defs><g id="Artwork_Layer" data-name="Artwork Layer"><ellipse class="cls-1" cx="96" cy="32.08" rx="13.87" ry="13.86"></ellipse><path class="cls-1" d="M50,11.52V52.64a3.51,3.51,0,0,0,3.52,3.52h85A3.53,3.53,0,0,0,142,52.64V11.51A3.51,3.51,0,0,0,138.48,8h-85A3.53,3.53,0,0,0,50,11.52ZM137.62,38a13.86,13.86,0,0,0-13.93,13.8H68.31A13.86,13.86,0,0,0,54.38,38V26.18a13.86,13.86,0,0,0,13.93-13.8h55.38a13.86,13.86,0,0,0,13.93,13.8Z"></path><path class="cls-1" d="M123.53,104.7h0a5.51,5.51,0,0,0-5.51,5.5v20.66a1,1,0,0,1-1,1h0a1,1,0,0,1-1-1l-.16-46.18a5.51,5.51,0,0,0-5.51-5.5h0a5.51,5.51,0,0,0-5.51,5.5v29.56a1,1,0,0,1-1,1h-.7a1,1,0,0,1-1-1V74a5.51,5.51,0,0,0-5.51-5.5h0A5.51,5.51,0,0,0,91,74v38a1,1,0,0,1-1,1h-.7a1,1,0,0,1-1-1V79.54A5.51,5.51,0,0,0,82.75,74h0a5.51,5.51,0,0,0-5.51,5.5v36.9a1,1,0,0,1-1,1h-.7a1,1,0,0,1-1-1V93.18A5.5,5.5,0,0,0,69,87.68h0a5.51,5.51,0,0,0-5.51,5.5s0,33.63,0,48.48a32.56,32.56,0,0,0,5.84,18.6l2,2.84a7.51,7.51,0,0,1,.88,3.53v10.49A6.88,6.88,0,0,0,79.06,184H108a6.88,6.88,0,0,0,6.89-6.88V163.4a1.81,1.81,0,0,1,1.29-1.66c8.48-3,12.76-12.5,12.76-23.17,0-3.62,0-3.62.14-10.13V110.2A5.51,5.51,0,0,0,123.53,104.7Z"></path><path class="cls-1" d="M181.83,159.53l-7.65-7.62a3.46,3.46,0,0,1-.74-3.77,18.91,18.91,0,0,0,1.37-8.15,19.19,19.19,0,1,0-12.14,18.79,3.5,3.5,0,0,1,3.76.74l7.84,7.81a5.45,5.45,0,0,0,7.76-.08A5.52,5.52,0,0,0,181.83,159.53ZM141.35,141a14.29,14.29,0,1,1,14.29,14.29A14.28,14.28,0,0,1,141.35,141Z"></path></g></svg>