<svg xmlns="http://www.w3.org/2000/svg" fill="white" viewBox="0 0 192 192"><defs><style></style></defs><g id="Artwork_Layer" data-name="Artwork Layer"><ellipse class="cls-1" cx="83.5" cy="83.5" rx="17.65" ry="17.58"></ellipse><path class="cls-1" d="M108.2,108.59H48.43A17.61,17.61,0,0,0,30.78,91V76A17.61,17.61,0,0,0,48.43,58.41h70.14A17.61,17.61,0,0,0,136.22,76v4.13a2.39,2.39,0,0,0,2,2.36l.42.07a2.38,2.38,0,0,0,2.79-2.36V58A4.42,4.42,0,0,0,137,53.57H30A4.44,4.44,0,0,0,25.58,58v51A4.41,4.41,0,0,0,30,113.42h78.21a2.38,2.38,0,0,0,2.35-2.82v0A2.39,2.39,0,0,0,108.2,108.59Z"></path><path class="cls-1" d="M164.74,129l-10.58-10.55a3.46,3.46,0,0,1-.74-3.77,18.86,18.86,0,0,0,1.37-8.14,19.18,19.18,0,1,0-12.14,18.78,3.49,3.49,0,0,1,3.76.75l10.76,10.73a5.46,5.46,0,0,0,7.77-.08A5.52,5.52,0,0,0,164.74,129Zm-43.41-21.48a14.29,14.29,0,1,1,14.29,14.28A14.29,14.29,0,0,1,121.33,107.56Z"></path></g></svg>