<svg xmlns="http://www.w3.org/2000/svg" viewBox="0 0 192 192" fill="white"><defs><style></style></defs><g id="Artwork_Layer" data-name="Artwork Layer"><path class="cls-1" d="M170.34,111.16a5.7,5.7,0,0,0-6.8-.9l-30,16.94a7.19,7.19,0,0,1-4.72.83l-1.3-.23a7.07,7.07,0,0,0-4.09-8L100,109.51a41.43,41.43,0,0,0-27.95-2L52.71,113a13.23,13.23,0,0,0-4.77,2.5L21.57,137.23a4.26,4.26,0,0,0-.29,6.35L42.7,164.74a4.4,4.4,0,0,0,6.4-.25l17.43-20.22a7.63,7.63,0,0,1,7.23-2.47L120.13,151A15.71,15.71,0,0,0,132.71,148l37.11-28.51A5.54,5.54,0,0,0,170.34,111.16Zm-2.85,5.41-36.71,28.21a13,13,0,0,1-10.39,2.42l-45.58-9a12,12,0,0,0-11.37,3.89L47.21,160.91a2,2,0,0,1-2.93.11L25.05,142a2,2,0,0,1,.13-2.91l24.57-20.22a13.06,13.06,0,0,1,4.77-2.49l17.28-4.88a41.44,41.44,0,0,1,28,2l22.13,9.75a3.35,3.35,0,0,1,1.93,3.82,3.4,3.4,0,0,1-4,2.53L93.56,124a1.89,1.89,0,0,0-2.24,1.43,1.86,1.86,0,0,0,1.45,2.22L119,133.23a7.24,7.24,0,0,0,6.63-2l3.14.53a9.31,9.31,0,0,0,6.14-1.06l30.53-17.23a1.88,1.88,0,0,1,2.25.3A1.83,1.83,0,0,1,167.49,116.57Z"></path><path class="cls-1" d="M134,81.15v5.14a4.69,4.69,0,0,1-4.7,4.7h0a4.69,4.69,0,0,1-4.7-4.7V81.86a1.3,1.3,0,0,0-1.13-1.28,24.84,24.84,0,0,1-8.73-2.86,4.69,4.69,0,0,1-1.1-7.26l.5-.54a4.61,4.61,0,0,1,5.64-1,14.59,14.59,0,0,0,7.37,2c3.32,0,4.34-1.4,4.34-2.93,0-2.11-1.21-3-6.32-4.6-10.59-3.38-13.2-8-13.2-14,0-6.68,4.74-11.17,11.59-12.68a1.29,1.29,0,0,0,1-1.26V31.71a4.69,4.69,0,0,1,4.7-4.7h0a4.69,4.69,0,0,1,4.7,4.7v3.88a1.29,1.29,0,0,0,1,1.25,21.24,21.24,0,0,1,5.38,1.89,4.69,4.69,0,0,1,1.38,7.15l-.17.21A4.72,4.72,0,0,1,136,47.3a13.31,13.31,0,0,0-5.9-1.34c-2.68,0-3.76.95-3.76,2.29,0,1.85,1.53,2.36,7.15,4.15,9.12,2.93,12.56,7,12.56,14.35,0,6.35-4,11.23-11,13.15A1.3,1.3,0,0,0,134,81.15Z"></path></g></svg>