<svg xmlns="http://www.w3.org/2000/svg" fill="white" viewBox="0 0 192 192"><defs></defs><g id="Artwork_Layer" data-name="Artwork Layer"><path class="cls-1" d="M132.2,89.81a4.25,4.25,0,0,0-5.07-.67l-22.4,12.65a5.39,5.39,0,0,1-3.52.61l-1-.17a5.27,5.27,0,0,0-3-6L79.73,88.58a31,31,0,0,0-20.86-1.46L44.41,91.2a9.88,9.88,0,0,0-3.56,1.86L21.17,109.27A3.19,3.19,0,0,0,21,114l16,15.79a3.28,3.28,0,0,0,4.77-.19l13-15.09a5.67,5.67,0,0,1,5.39-1.84l34.61,6.83a11.65,11.65,0,0,0,9.39-2.19l27.69-21.27A4.14,4.14,0,0,0,132.2,89.81Zm-2.13,4L102.68,114.9a9.66,9.66,0,0,1-7.76,1.81L60.9,110a8.94,8.94,0,0,0-8.48,2.9l-12.11,14a1.51,1.51,0,0,1-2.19.08L23.77,112.85a1.47,1.47,0,0,1,.1-2.18L42.2,95.58a9.8,9.8,0,0,1,3.56-1.86l12.9-3.64a31,31,0,0,1,20.86,1.46L96,98.82a2.5,2.5,0,0,1,1.44,2.85,2.54,2.54,0,0,1-3,1.89L74.9,99.39a1.41,1.41,0,0,0-1.68,1.07,1.39,1.39,0,0,0,1.09,1.65l19.56,4.17a5.41,5.41,0,0,0,4.95-1.46l2.34.4a6.89,6.89,0,0,0,4.58-.8l22.78-12.86a1.42,1.42,0,0,1,1.68.23A1.36,1.36,0,0,1,130.07,93.85Z"></path><path class="cls-1" d="M105.11,67.41v3.84a3.51,3.51,0,0,1-3.51,3.51h0a3.51,3.51,0,0,1-3.51-3.51V67.94a1,1,0,0,0-.84-1,18.67,18.67,0,0,1-6.51-2.13,3.5,3.5,0,0,1-.83-5.42l.37-.41a3.47,3.47,0,0,1,4.22-.72,10.89,10.89,0,0,0,5.5,1.5c2.47,0,3.23-1.05,3.23-2.19,0-1.57-.9-2.24-4.71-3.43-7.9-2.52-9.85-5.95-9.85-10.42,0-5,3.54-8.34,8.65-9.47a1,1,0,0,0,.77-.94V30.52A3.51,3.51,0,0,1,101.57,27h0a3.51,3.51,0,0,1,3.51,3.51v2.89a1,1,0,0,0,.77.94,15.52,15.52,0,0,1,4,1.41,3.49,3.49,0,0,1,1,5.33l-.13.16a3.52,3.52,0,0,1-4.24.9,9.9,9.9,0,0,0-4.4-1c-2,0-2.81.71-2.81,1.71,0,1.38,1.14,1.76,5.33,3.1,6.81,2.19,9.38,5.19,9.38,10.71,0,4.73-3,8.38-8.23,9.81A1,1,0,0,0,105.11,67.41Z"></path><path class="cls-1" d="M148.19,121.1a22.35,22.35,0,1,0,22.35,22.35A22.35,22.35,0,0,0,148.19,121.1Zm0,38.8a16.46,16.46,0,1,1,16.46-16.45A16.45,16.45,0,0,1,148.19,159.9Z"></path><path class="cls-1" d="M156.93,143.46h-8a.74.74,0,0,1-.74-.74v-11a1.54,1.54,0,0,0-1.39-1.56,1.48,1.48,0,0,0-1.55,1.48v13.25a1.47,1.47,0,0,0,1.47,1.47H157a1.47,1.47,0,0,0,1.47-1.55A1.53,1.53,0,0,0,156.93,143.46Z"></path></g></svg>