<svg fill="white" height="512pt" viewBox="0 -16 512 512" width="512pt" xmlns="http://www.w3.org/2000/svg"><path d="m316 270c74.441406 0 135-60.558594 135-135s-60.558594-135-135-135-135 60.558594-135 135 60.558594 135 135 135zm-15-207.238281v-17.160157c0-8.292968 6.710938-15 15-15s15 6.707032 15 15v17.328126c9.898438 3.542968 18.566406 10.210937 23.964844 19.554687 4.160156 7.179687 1.699218 16.347656-5.464844 20.492187-7.234375 4.175782-16.375 1.699219-20.492188-5.460937-2.679687-4.644531-7.660156-7.515625-13.007812-7.515625-8.277344 0-15 6.722656-15 15s6.722656 15 15 15c24.8125 0 45 20.1875 45 45 0 19.53125-12.578125 36.023438-30 42.238281v16.5625c0 8.289063-6.710938 15-15 15s-15-6.710937-15-15v-16.730469c-9.898438-3.546874-18.566406-10.210937-23.964844-19.554687-4.160156-7.179687-1.699218-16.347656 5.464844-20.492187 7.175781-4.21875 16.359375-1.714844 20.492188 5.460937 2.679687 4.644531 7.660156 7.515625 13.007812 7.515625 8.277344 0 15-6.722656 15-15s-6.722656-15-15-15c-24.8125 0-45-20.1875-45-45 0-19.53125 12.578125-36.023438 30-42.238281zm0 0"/><path d="m494.511719 289.316406c-10.546875-4.152344-22.558594-1.433594-30.292969 6.847656.121094-.125-29.460938 30.578126-75.320312 79.433594-7.199219 8.101563-17.097657 12.902344-27.898438 13.800782-2.941406.984374-118.398438.601562-121.5.601562-8.402344 0-15-6.601562-15-15 0-8.402344 6.597656-15 15-15h106.5c16.570312 0 30-13.433594 30-30 0-16.570312-13.429688-30-30-30h-84.300781l-11.398438-9.902344c-39.75-34.523437-98.851562-34.523437-138.601562 0l-11.398438 9.902344h-85.300781c-8.285156 0-15 6.714844-15 15v120c0 8.285156 6.714844 15 15 15h88.898438c8.101562 2.398438 16.199218 6 24.902343 9.601562 22.199219 9.597657 47.402344 20.398438 83.398438 20.398438h148.800781c23.609375 0 45.835938-11.113281 60-30l82-108c6-7.800781 9-17.101562 9-27-.003906-11.347656-6.941406-21.527344-17.488281-25.683594zm0 0"/></svg>