<svg xmlns="http://www.w3.org/2000/svg" fill="white" viewBox="0 0 192 192"><defs><style></style></defs><g id="Artwork_Layer" data-name="Artwork Layer"><ellipse class="cls-1" cx="96" cy="45.65" rx="17.65" ry="17.58"></ellipse><path class="cls-1" d="M38.08,20.14v51a4.42,4.42,0,0,0,4.44,4.41h107a4.42,4.42,0,0,0,4.44-4.41v-51a4.43,4.43,0,0,0-4.44-4.42h-107A4.43,4.43,0,0,0,38.08,20.14Zm110.64,33a17.61,17.61,0,0,0-17.65,17.58H60.93A17.61,17.61,0,0,0,43.28,53.16v-15A17.61,17.61,0,0,0,60.93,20.56h70.14a17.61,17.61,0,0,0,17.65,17.58Z"></path><path class="cls-1" d="M104.89,148.31A8.89,8.89,0,1,1,96,139.46,8.87,8.87,0,0,1,104.89,148.31ZM96.1,123.38a25.08,25.08,0,0,0-5.23.54,1.81,1.81,0,0,1-1.77-.63l-3.78-4.58a1.83,1.83,0,0,0-2.33-.42L76.6,122a1.83,1.83,0,0,0-.81,2.21l2.06,5.64a1.79,1.79,0,0,1-.33,1.82,24.93,24.93,0,0,0-5.17,8.89,1.8,1.8,0,0,1-1.43,1.2l-6,1a1.84,1.84,0,0,0-1.54,1.81v7.34a1.84,1.84,0,0,0,1.52,1.81l6,1.05a1.82,1.82,0,0,1,1.42,1.2,24.74,24.74,0,0,0,5,8.78,1.82,1.82,0,0,1,.32,1.83l-2.15,5.7a1.82,1.82,0,0,0,.8,2.23L83,178.28a1.83,1.83,0,0,0,2.33-.42l3.82-4.63a1.84,1.84,0,0,1,1.77-.63,25.31,25.31,0,0,0,5.19.54,24.85,24.85,0,0,0,4.91-.49,1.82,1.82,0,0,1,1.75.64l3.82,4.62a1.85,1.85,0,0,0,2.34.43l6.66-3.84a1.83,1.83,0,0,0,.81-2.22l-2.08-5.5a1.79,1.79,0,0,1,.34-1.85,24.82,24.82,0,0,0,5.16-8.8,1.81,1.81,0,0,1,1.43-1.19l5.82-1a1.84,1.84,0,0,0,1.54-1.81v-7.66a1.84,1.84,0,0,0-1.54-1.81l-5.76-.95a1.81,1.81,0,0,1-1.44-1.2,24.56,24.56,0,0,0-5.2-9,1.81,1.81,0,0,1-.33-1.85l2.06-5.46a1.83,1.83,0,0,0-.81-2.22l-6.39-3.68a1.84,1.84,0,0,0-2.32.41l-3.79,4.5a1.8,1.8,0,0,1-1.75.62A25.08,25.08,0,0,0,96.1,123.38Z"></path><path class="cls-1" d="M108.44,103.21a2.56,2.56,0,0,0,1.81-4.37L97.82,86.4a2.56,2.56,0,0,0-3.61,0L81.76,98.84a2.56,2.56,0,0,0,1.8,4.37Z"></path></g></svg>